<svg xmlns="http://www.w3.org/2000/svg" viewBox="0 0 48 48" width="48" height="48">
  <defs>
    <linearGradient id="g" x1="0%" y1="0%" x2="100%" y2="100%">
      <stop offset="0%" style="stop-color:#409EFF"/>
      <stop offset="100%" style="stop-color:#79bbff"/>
    </linearGradient>
  </defs>
  <!-- 齿轮外圈 -->
  <path d="M24 4 L27 4 L28 8 L32 7 L34 10 L37 9 L39 13 L42 13 L43 17 L46 19 L45 23 L48 25 L46 28 L48 31 L45 32 L43 36 L40 36 L38 40 L34 39 L32 42 L28 41 L27 45 L24 45 L23 41 L19 42 L17 39 L13 40 L11 36 L8 36 L6 32 L3 31 L5 28 L3 25 L6 23 L4 19 L7 17 L8 13 L11 13 L13 9 L16 10 L18 7 L22 8 L23 4 Z" fill="url(#g)" opacity="0.95"/>
  <!-- 中心圆 -->
  <circle cx="24" cy="24" r="10" fill="#2b3a4e"/>
  <!-- 内圈高光 -->
  <circle cx="24" cy="24" r="7" fill="none" stroke="rgba(255,255,255,0.25)" stroke-width="1"/>
  <!-- 螺丝图案 -->
  <rect x="22" y="18" width="4" height="9" rx="1.5" fill="rgba(255,255,255,0.85)"/>
  <rect x="20" y="15" width="8" height="4" rx="1.5" fill="rgba(255,255,255,0.85)"/>
</svg>
